<mxfile host="65bd71144e">
    <diagram id="kZzSJj72mB-u2ySNVgUA" name="Page-1">
        <mxGraphModel dx="697" dy="405" grid="1" gridSize="10" guides="1" tooltips="1" connect="1" arrows="1" fold="1" page="1" pageScale="1" pageWidth="850" pageHeight="1100" math="0" shadow="0">
            <root>
                <mxCell id="0"/>
                <mxCell id="1" parent="0"/>
                <mxCell id="15" style="edgeStyle=orthogonalEdgeStyle;rounded=0;html=1;exitX=1;exitY=0.5;exitDx=0;exitDy=0;entryX=0.5;entryY=0;entryDx=0;entryDy=0;endArrow=open;endFill=0;labelBackgroundColor=none;fontColor=#F7F7F7;fillColor=#f9f7ed;strokeColor=#F0F0F0;" edge="1" parent="1" source="2" target="8">
                    <mxGeometry relative="1" as="geometry"/>
                </mxCell>
                <mxCell id="2" value="Kp * e(t)" style="rounded=0;whiteSpace=wrap;html=1;fontSize=11;labelBackgroundColor=none;fillColor=#cce5ff;strokeColor=#36393d;fontColor=#000000;" vertex="1" parent="1">
                    <mxGeometry x="170" y="70" width="120" height="40" as="geometry"/>
                </mxCell>
                <mxCell id="16" style="edgeStyle=orthogonalEdgeStyle;rounded=0;html=1;exitX=1;exitY=0.5;exitDx=0;exitDy=0;entryX=0.5;entryY=1;entryDx=0;entryDy=0;endArrow=open;endFill=0;labelBackgroundColor=none;fontColor=#F7F7F7;fillColor=#f9f7ed;strokeColor=#F0F0F0;" edge="1" parent="1" source="3" target="8">
                    <mxGeometry relative="1" as="geometry"/>
                </mxCell>
                <mxCell id="3" value="Kd * (e(t) - e(t&lt;span style=&quot;font-size: 11px;&quot;&gt;-1&lt;/span&gt;))" style="rounded=0;whiteSpace=wrap;html=1;fontSize=11;labelBackgroundColor=none;fillColor=#cce5ff;strokeColor=#36393d;fontColor=#000000;" vertex="1" parent="1">
                    <mxGeometry x="170" y="150" width="120" height="40" as="geometry"/>
                </mxCell>
                <mxCell id="21" style="edgeStyle=orthogonalEdgeStyle;rounded=0;html=1;exitX=1;exitY=0.5;exitDx=0;exitDy=0;entryX=1;entryY=0.5;entryDx=0;entryDy=0;endArrow=open;endFill=0;labelBackgroundColor=none;fontColor=#F7F7F7;fillColor=#f9f7ed;strokeColor=#F0F0F0;" edge="1" parent="1" source="4" target="5">
                    <mxGeometry relative="1" as="geometry">
                        <Array as="points">
                            <mxPoint x="800" y="130"/>
                            <mxPoint x="800" y="280"/>
                        </Array>
                    </mxGeometry>
                </mxCell>
                <mxCell id="4" value="MyRob" style="rounded=0;whiteSpace=wrap;html=1;labelBackgroundColor=none;fillColor=#cce5ff;strokeColor=#36393d;fontColor=#000000;" vertex="1" parent="1">
                    <mxGeometry x="640" y="110" width="80" height="40" as="geometry"/>
                </mxCell>
                <mxCell id="7" style="edgeStyle=orthogonalEdgeStyle;html=1;exitX=0;exitY=0.5;exitDx=0;exitDy=0;endArrow=open;endFill=0;entryX=0.5;entryY=1;entryDx=0;entryDy=0;rounded=0;startArrow=none;labelBackgroundColor=none;fontColor=#F7F7F7;fillColor=#f9f7ed;strokeColor=#F0F0F0;" edge="1" parent="1" source="28" target="11">
                    <mxGeometry relative="1" as="geometry">
                        <mxPoint x="50" y="130" as="targetPoint"/>
                    </mxGeometry>
                </mxCell>
                <mxCell id="23" value="-" style="edgeLabel;html=1;align=center;verticalAlign=middle;resizable=0;points=[];labelBackgroundColor=none;fontColor=#F7F7F7;" vertex="1" connectable="0" parent="7">
                    <mxGeometry x="0.8866" y="2" relative="1" as="geometry">
                        <mxPoint x="-8" y="9" as="offset"/>
                    </mxGeometry>
                </mxCell>
                <mxCell id="35" value="position" style="edgeLabel;html=1;align=center;verticalAlign=middle;resizable=0;points=[];fontSize=11;labelBackgroundColor=none;fontColor=#F7F7F7;" vertex="1" connectable="0" parent="7">
                    <mxGeometry x="-0.53" y="-3" relative="1" as="geometry">
                        <mxPoint x="22" y="-12" as="offset"/>
                    </mxGeometry>
                </mxCell>
                <mxCell id="5" value="LineSensorFilter" style="rounded=0;whiteSpace=wrap;html=1;labelBackgroundColor=none;fillColor=#cce5ff;strokeColor=#36393d;fontColor=#000000;" vertex="1" parent="1">
                    <mxGeometry x="580" y="255" width="100" height="50" as="geometry"/>
                </mxCell>
                <mxCell id="9" style="edgeStyle=orthogonalEdgeStyle;html=1;exitX=1;exitY=0.5;exitDx=0;exitDy=0;entryX=0;entryY=0.5;entryDx=0;entryDy=0;endArrow=open;endFill=0;rounded=0;labelBackgroundColor=none;fontColor=#F7F7F7;fillColor=#f9f7ed;strokeColor=#F0F0F0;" edge="1" parent="1" source="8" target="36">
                    <mxGeometry relative="1" as="geometry">
                        <Array as="points">
                            <mxPoint x="360" y="130"/>
                            <mxPoint x="360" y="100"/>
                        </Array>
                    </mxGeometry>
                </mxCell>
                <mxCell id="38" style="edgeStyle=orthogonalEdgeStyle;rounded=0;html=1;exitX=1;exitY=0.5;exitDx=0;exitDy=0;entryX=0;entryY=0.5;entryDx=0;entryDy=0;fontSize=11;endArrow=open;endFill=0;labelBackgroundColor=none;fontColor=#F7F7F7;fillColor=#f9f7ed;strokeColor=#F0F0F0;" edge="1" parent="1" source="8" target="37">
                    <mxGeometry relative="1" as="geometry">
                        <Array as="points">
                            <mxPoint x="360" y="130"/>
                            <mxPoint x="360" y="160"/>
                        </Array>
                    </mxGeometry>
                </mxCell>
                <mxCell id="41" value="pid" style="edgeLabel;html=1;align=center;verticalAlign=middle;resizable=0;points=[];fontSize=11;labelBackgroundColor=none;fontColor=#F7F7F7;" vertex="1" connectable="0" parent="38">
                    <mxGeometry x="-0.7408" relative="1" as="geometry">
                        <mxPoint y="-15" as="offset"/>
                    </mxGeometry>
                </mxCell>
                <mxCell id="8" value="" style="shape=sumEllipse;perimeter=ellipsePerimeter;whiteSpace=wrap;html=1;backgroundOutline=1;labelBackgroundColor=none;fillColor=#cce5ff;strokeColor=#36393d;fontColor=#F7F7F7;" vertex="1" parent="1">
                    <mxGeometry x="300" y="120" width="20" height="20" as="geometry"/>
                </mxCell>
                <mxCell id="13" style="edgeStyle=orthogonalEdgeStyle;rounded=0;html=1;exitX=1;exitY=0.5;exitDx=0;exitDy=0;entryX=0;entryY=0.5;entryDx=0;entryDy=0;endArrow=open;endFill=0;labelBackgroundColor=none;fontColor=#F7F7F7;fillColor=#f9f7ed;strokeColor=#F0F0F0;" edge="1" parent="1" source="11" target="2">
                    <mxGeometry relative="1" as="geometry">
                        <Array as="points">
                            <mxPoint x="150" y="130"/>
                            <mxPoint x="150" y="90"/>
                        </Array>
                    </mxGeometry>
                </mxCell>
                <mxCell id="14" style="edgeStyle=orthogonalEdgeStyle;rounded=0;html=1;exitX=1;exitY=0.5;exitDx=0;exitDy=0;entryX=0;entryY=0.5;entryDx=0;entryDy=0;endArrow=open;endFill=0;labelBackgroundColor=none;fontColor=#F7F7F7;fillColor=#f9f7ed;strokeColor=#F0F0F0;" edge="1" parent="1" source="11" target="3">
                    <mxGeometry relative="1" as="geometry">
                        <Array as="points">
                            <mxPoint x="150" y="130"/>
                            <mxPoint x="150" y="170"/>
                        </Array>
                    </mxGeometry>
                </mxCell>
                <mxCell id="25" value="e(t)" style="edgeLabel;html=1;align=center;verticalAlign=middle;resizable=0;points=[];labelBackgroundColor=none;fontColor=#F7F7F7;" vertex="1" connectable="0" parent="14">
                    <mxGeometry x="-0.7011" y="-1" relative="1" as="geometry">
                        <mxPoint y="-15" as="offset"/>
                    </mxGeometry>
                </mxCell>
                <mxCell id="11" value="" style="ellipse;whiteSpace=wrap;html=1;aspect=fixed;labelBackgroundColor=none;fillColor=#cce5ff;strokeColor=#36393d;fontColor=#F7F7F7;" vertex="1" parent="1">
                    <mxGeometry x="80" y="120" width="20" height="20" as="geometry"/>
                </mxCell>
                <mxCell id="19" value="" style="endArrow=open;html=1;rounded=0;entryX=0;entryY=0.5;entryDx=0;entryDy=0;endFill=0;labelBackgroundColor=none;fontColor=#F7F7F7;fillColor=#f9f7ed;strokeColor=#F0F0F0;" edge="1" parent="1" target="11">
                    <mxGeometry width="50" height="50" relative="1" as="geometry">
                        <mxPoint x="40" y="130" as="sourcePoint"/>
                        <mxPoint x="60" y="110" as="targetPoint"/>
                    </mxGeometry>
                </mxCell>
                <mxCell id="22" value="+" style="edgeLabel;html=1;align=center;verticalAlign=middle;resizable=0;points=[];labelBackgroundColor=none;fontColor=#F7F7F7;" vertex="1" connectable="0" parent="19">
                    <mxGeometry x="0.4167" y="2" relative="1" as="geometry">
                        <mxPoint x="-8" y="12" as="offset"/>
                    </mxGeometry>
                </mxCell>
                <mxCell id="34" value="30" style="edgeLabel;html=1;align=center;verticalAlign=middle;resizable=0;points=[];fontSize=11;labelBackgroundColor=none;fontColor=#F7F7F7;" vertex="1" connectable="0" parent="19">
                    <mxGeometry x="0.2082" y="-1" relative="1" as="geometry">
                        <mxPoint x="-4" y="-15" as="offset"/>
                    </mxGeometry>
                </mxCell>
                <mxCell id="20" value="" style="endArrow=open;html=1;rounded=0;endFill=0;exitX=1;exitY=0.5;exitDx=0;exitDy=0;labelBackgroundColor=none;fontColor=#F7F7F7;fillColor=#f9f7ed;strokeColor=#F0F0F0;" edge="1" parent="1" source="4">
                    <mxGeometry width="50" height="50" relative="1" as="geometry">
                        <mxPoint x="530" y="130" as="sourcePoint"/>
                        <mxPoint x="830" y="130" as="targetPoint"/>
                    </mxGeometry>
                </mxCell>
                <mxCell id="26" value="lineSensor" style="edgeLabel;html=1;align=center;verticalAlign=middle;resizable=0;points=[];labelBackgroundColor=none;fontColor=#F7F7F7;" vertex="1" connectable="0" parent="20">
                    <mxGeometry x="-0.469" y="1" relative="1" as="geometry">
                        <mxPoint x="5" y="-15" as="offset"/>
                    </mxGeometry>
                </mxCell>
                <mxCell id="29" value="" style="edgeStyle=orthogonalEdgeStyle;html=1;endArrow=none;endFill=0;entryX=1;entryY=0.5;entryDx=0;entryDy=0;rounded=0;exitX=0;exitY=0.5;exitDx=0;exitDy=0;labelBackgroundColor=none;fontColor=#F7F7F7;fillColor=#f9f7ed;strokeColor=#F0F0F0;" edge="1" parent="1" source="5" target="28">
                    <mxGeometry relative="1" as="geometry">
                        <mxPoint x="30" y="140" as="targetPoint"/>
                        <mxPoint x="310" y="280" as="sourcePoint"/>
                    </mxGeometry>
                </mxCell>
                <mxCell id="32" value="lineSensorFilter" style="edgeLabel;html=1;align=center;verticalAlign=middle;resizable=0;points=[];labelBackgroundColor=none;fontColor=#F7F7F7;" vertex="1" connectable="0" parent="29">
                    <mxGeometry x="-0.5968" relative="1" as="geometry">
                        <mxPoint x="7" y="-15" as="offset"/>
                    </mxGeometry>
                </mxCell>
                <mxCell id="28" value="&lt;font style=&quot;font-size: 11px;&quot;&gt;determinePosition()&lt;/font&gt;" style="shape=step;perimeter=stepPerimeter;whiteSpace=wrap;html=1;fixedSize=1;size=10;flipH=1;labelBackgroundColor=none;fillColor=#cce5ff;strokeColor=#36393d;fontColor=#000000;" vertex="1" parent="1">
                    <mxGeometry x="160" y="260" width="130" height="40" as="geometry"/>
                </mxCell>
                <mxCell id="43" style="edgeStyle=orthogonalEdgeStyle;rounded=0;html=1;exitX=1;exitY=0.5;exitDx=0;exitDy=0;entryX=0.5;entryY=0;entryDx=0;entryDy=0;fontSize=11;endArrow=none;endFill=0;labelBackgroundColor=none;fontColor=#F7F7F7;fillColor=#f9f7ed;strokeColor=#F0F0F0;" edge="1" parent="1" source="36" target="46">
                    <mxGeometry relative="1" as="geometry"/>
                </mxCell>
                <mxCell id="44" value="lPow" style="edgeLabel;html=1;align=center;verticalAlign=middle;resizable=0;points=[];fontSize=11;labelBackgroundColor=none;fontColor=#F7F7F7;" vertex="1" connectable="0" parent="43">
                    <mxGeometry x="-0.7855" relative="1" as="geometry">
                        <mxPoint x="10" y="-10" as="offset"/>
                    </mxGeometry>
                </mxCell>
                <mxCell id="36" value="baseSpeed - pid" style="rounded=0;whiteSpace=wrap;html=1;fontSize=11;labelBackgroundColor=none;fillColor=#cce5ff;strokeColor=#36393d;fontColor=#000000;" vertex="1" parent="1">
                    <mxGeometry x="390" y="80" width="100" height="40" as="geometry"/>
                </mxCell>
                <mxCell id="42" style="edgeStyle=orthogonalEdgeStyle;rounded=0;html=1;exitX=1;exitY=0.5;exitDx=0;exitDy=0;entryX=0;entryY=0.5;entryDx=0;entryDy=0;fontSize=11;endArrow=open;endFill=0;startArrow=none;labelBackgroundColor=none;fontColor=#F7F7F7;fillColor=#f9f7ed;strokeColor=#F0F0F0;" edge="1" parent="1" source="46" target="4">
                    <mxGeometry relative="1" as="geometry"/>
                </mxCell>
                <mxCell id="49" value="driveMotors" style="edgeLabel;html=1;align=center;verticalAlign=middle;resizable=0;points=[];fontSize=11;labelBackgroundColor=none;fontColor=#F7F7F7;" vertex="1" connectable="0" parent="42">
                    <mxGeometry x="-0.2067" y="-1" relative="1" as="geometry">
                        <mxPoint y="-15" as="offset"/>
                    </mxGeometry>
                </mxCell>
                <mxCell id="37" value="baseSpeed + pid" style="rounded=0;whiteSpace=wrap;html=1;fontSize=11;labelBackgroundColor=none;fillColor=#cce5ff;strokeColor=#36393d;fontColor=#000000;" vertex="1" parent="1">
                    <mxGeometry x="390" y="140" width="100" height="40" as="geometry"/>
                </mxCell>
                <mxCell id="47" value="" style="edgeStyle=orthogonalEdgeStyle;rounded=0;html=1;exitX=1;exitY=0.5;exitDx=0;exitDy=0;entryX=0.5;entryY=1;entryDx=0;entryDy=0;fontSize=11;endArrow=none;endFill=0;labelBackgroundColor=none;fontColor=#F7F7F7;fillColor=#f9f7ed;strokeColor=#F0F0F0;" edge="1" parent="1" source="37" target="46">
                    <mxGeometry relative="1" as="geometry">
                        <mxPoint x="490" y="160" as="sourcePoint"/>
                        <mxPoint x="570" y="130" as="targetPoint"/>
                    </mxGeometry>
                </mxCell>
                <mxCell id="48" value="rPow" style="edgeLabel;html=1;align=center;verticalAlign=middle;resizable=0;points=[];fontSize=11;labelBackgroundColor=none;fontColor=#F7F7F7;" vertex="1" connectable="0" parent="47">
                    <mxGeometry x="-0.7345" relative="1" as="geometry">
                        <mxPoint x="10" y="10" as="offset"/>
                    </mxGeometry>
                </mxCell>
                <mxCell id="46" value="" style="ellipse;whiteSpace=wrap;html=1;aspect=fixed;fontSize=11;labelBackgroundColor=none;fillColor=#cce5ff;strokeColor=#36393d;fontColor=#F7F7F7;" vertex="1" parent="1">
                    <mxGeometry x="530" y="125" width="10" height="10" as="geometry"/>
                </mxCell>
            </root>
        </mxGraphModel>
    </diagram>
</mxfile>